<svg id="Layer_1" enable-background="new 0 0 512.067 512.067" height="512" viewBox="0 0 512.067 512.067" xmlns="http://www.w3.org/2000/svg" xmlns:xlink="http://www.w3.org/1999/xlink">
    <linearGradient id="SVGID_1_" gradientUnits="userSpaceOnUse" x1="21.022" x2="491.046" y1="256.034" y2="256.034">
        <stop offset="0" stop-color="#3cd1f6"></stop>
        <stop offset=".2557" stop-color="#3cb7f6"></stop>
        <stop offset=".5295" stop-color="#3cb7f6"></stop>
        <stop offset=".7844" stop-color="#3c9df6"></stop>
        <stop offset="1" stop-color="#3c8cf6"></stop>
    </linearGradient>
    <path d="m451.028 302.015v-211.998c0-13.355-5.201-25.912-14.645-35.355-9.444-9.444-22-14.645-35.356-14.645l-289.989.007c-13.357 0-25.914 5.202-35.357 14.648-9.444 9.445-14.644 22.003-14.642 35.36l.042 269.99c.004 27.565 22.434 49.992 50 49.992h208.506l-11.509-11.332c-7.871-7.75-7.969-20.413-.219-28.283s20.413-7.969 28.283-.219l101.122 99.57c3.371 3.173 6.953 2.338 8.795 1.552 1.855-.791 4.968-2.82 4.968-7.519v-62.77c1.056-26.536 38.953-26.516 40 0v62.77c0 19.632-11.218 36.611-29.276 44.312-17.801 7.636-38.007 4.152-52.247-9.546-.063-.061-.126-.121-.188-.183l-49.107-48.354h-249.127c-49.619 0-89.993-40.368-90-89.986l-.042-269.99c-1.008-48.379 41.617-91.01 89.997-90.012l289.989-.007c48.378-1.002 91.002 41.623 90.002 90v211.998c-1.056 26.537-38.953 26.516-40 0zm-298-84c11.046 0 20-8.954 20-20 0-20.749 6.113-34.262 10-38.831 3.887 4.569 10 18.082 10 38.831 1.051 26.526 38.95 26.525 40 0 0-19.071-3.871-37.314-10.898-51.37-18.319-38.011-59.888-38.005-78.203 0-7.028 14.056-10.898 32.299-10.898 51.37-.001 11.046 8.953 20 19.999 20zm167-20c0-20.749 6.113-34.262 10-38.831 3.887 4.569 10 18.082 10 38.831 1.051 26.526 38.95 26.525 40 0 0-19.071-3.871-37.314-10.898-51.37-18.319-38.011-59.888-38.005-78.203 0-7.028 14.056-10.898 32.299-10.898 51.37 1.051 26.529 38.95 26.524 39.999 0zm69 50c-4.945 0-9.471 1.795-12.963 4.769-55.876 44.021-185.038 43.53-240.075 0-12.724-10.988-33.043-1.764-32.962 15.231 0 6.181 2.804 11.706 7.209 15.375 68.421 56.501 224.053 55.951 291.582 0 14.221-11.828 5.96-35.311-12.791-35.375z" fill="url(#SVGID_1_)"></path>
</svg>